solid Camera_Holder
   facet normal 1.000000e+000 0.000000e+000 0.000000e+000
      outer loop
         vertex 2.000000e+000 4.000000e+000 2.000000e+000
         vertex 2.000000e+000 7.000000e+000 2.000000e+000
         vertex 2.000000e+000 4.000000e+000 2.000000e+001
      endloop
   endfacet
   facet normal 1.000000e+000 0.000000e+000 0.000000e+000
      outer loop
         vertex 2.000000e+000 4.000000e+000 2.000000e+001
         vertex 2.000000e+000 7.000000e+000 2.000000e+000
         vertex 2.000000e+000 7.000000e+000 2.650000e+001
      endloop
   endfacet
   facet normal 1.000000e+000 0.000000e+000 0.000000e+000
      outer loop
         vertex 2.000000e+000 4.000000e+000 2.000000e+001
         vertex 2.000000e+000 7.000000e+000 2.650000e+001
         vertex 2.000000e+000 2.000000e+000 2.000000e+001
      endloop
   endfacet
   facet normal 1.000000e+000 0.000000e+000 0.000000e+000
      outer loop
         vertex 2.000000e+000 2.000000e+000 2.000000e+001
         vertex 2.000000e+000 7.000000e+000 2.650000e+001
         vertex 2.000000e+000 2.000000e+000 2.650000e+001
      endloop
   endfacet
   facet normal -1.000000e+000 0.000000e+000 0.000000e+000
      outer loop
         vertex 2.800000e+001 2.000000e+000 2.000000e+001
         vertex 2.800000e+001 2.000000e+000 2.650000e+001
         vertex 2.800000e+001 4.000000e+000 2.000000e+001
      endloop
   endfacet
   facet normal -1.000000e+000 0.000000e+000 0.000000e+000
      outer loop
         vertex 2.800000e+001 4.000000e+000 2.000000e+001
         vertex 2.800000e+001 2.000000e+000 2.650000e+001
         vertex 2.800000e+001 7.000000e+000 2.650000e+001
      endloop
   endfacet
   facet normal -1.000000e+000 0.000000e+000 0.000000e+000
      outer loop
         vertex 2.800000e+001 4.000000e+000 2.000000e+001
         vertex 2.800000e+001 7.000000e+000 2.650000e+001
         vertex 2.800000e+001 4.000000e+000 2.000000e+000
      endloop
   endfacet
   facet normal -1.000000e+000 0.000000e+000 0.000000e+000
      outer loop
         vertex 2.800000e+001 4.000000e+000 2.000000e+000
         vertex 2.800000e+001 7.000000e+000 2.650000e+001
         vertex 2.800000e+001 7.000000e+000 2.000000e+000
      endloop
   endfacet
   facet normal 0.000000e+000 0.000000e+000 -1.000000e+000
      outer loop
         vertex 2.350000e+001 7.000000e+000 2.650000e+001
         vertex 2.800000e+001 7.000000e+000 2.650000e+001
         vertex 2.350000e+001 2.000000e+000 2.650000e+001
      endloop
   endfacet
   facet normal 0.000000e+000 0.000000e+000 -1.000000e+000
      outer loop
         vertex 2.350000e+001 2.000000e+000 2.650000e+001
         vertex 2.800000e+001 7.000000e+000 2.650000e+001
         vertex 2.800000e+001 2.000000e+000 2.650000e+001
      endloop
   endfacet
   facet normal -1.000000e+000 0.000000e+000 0.000000e+000
      outer loop
         vertex 2.350000e+001 7.000000e+000 2.850000e+001
         vertex 2.350000e+001 7.000000e+000 2.650000e+001
         vertex 2.350000e+001 0.000000e+000 2.850000e+001
      endloop
   endfacet
   facet normal -1.000000e+000 0.000000e+000 0.000000e+000
      outer loop
         vertex 2.350000e+001 0.000000e+000 2.850000e+001
         vertex 2.350000e+001 7.000000e+000 2.650000e+001
         vertex 2.350000e+001 2.000000e+000 2.650000e+001
      endloop
   endfacet
   facet normal -1.000000e+000 0.000000e+000 0.000000e+000
      outer loop
         vertex 2.350000e+001 0.000000e+000 2.850000e+001
         vertex 2.350000e+001 2.000000e+000 2.650000e+001
         vertex 2.350000e+001 0.000000e+000 2.650000e+001
      endloop
   endfacet
   facet normal 0.000000e+000 0.000000e+000 1.000000e+000
      outer loop
         vertex 3.000000e+001 7.000000e+000 2.850000e+001
         vertex 2.350000e+001 7.000000e+000 2.850000e+001
         vertex 3.000000e+001 0.000000e+000 2.850000e+001
      endloop
   endfacet
   facet normal 0.000000e+000 0.000000e+000 1.000000e+000
      outer loop
         vertex 3.000000e+001 0.000000e+000 2.850000e+001
         vertex 2.350000e+001 7.000000e+000 2.850000e+001
         vertex 2.350000e+001 0.000000e+000 2.850000e+001
      endloop
   endfacet
   facet normal 1.000000e+000 0.000000e+000 0.000000e+000
      outer loop
         vertex 3.000000e+001 7.000000e+000 0.000000e+000
         vertex 3.000000e+001 7.000000e+000 2.850000e+001
         vertex 3.000000e+001 0.000000e+000 0.000000e+000
      endloop
   endfacet
   facet normal 1.000000e+000 0.000000e+000 0.000000e+000
      outer loop
         vertex 3.000000e+001 0.000000e+000 0.000000e+000
         vertex 3.000000e+001 7.000000e+000 2.850000e+001
         vertex 3.000000e+001 0.000000e+000 2.850000e+001
      endloop
   endfacet
   facet normal 0.000000e+000 0.000000e+000 -1.000000e+000
      outer loop
         vertex 0.000000e+000 7.000000e+000 0.000000e+000
         vertex 3.000000e+001 7.000000e+000 0.000000e+000
         vertex 0.000000e+000 0.000000e+000 0.000000e+000
      endloop
   endfacet
   facet normal 0.000000e+000 0.000000e+000 -1.000000e+000
      outer loop
         vertex 0.000000e+000 0.000000e+000 0.000000e+000
         vertex 3.000000e+001 7.000000e+000 0.000000e+000
         vertex 3.000000e+001 0.000000e+000 0.000000e+000
      endloop
   endfacet
   facet normal -1.000000e+000 0.000000e+000 0.000000e+000
      outer loop
         vertex 0.000000e+000 7.000000e+000 2.850000e+001
         vertex 0.000000e+000 7.000000e+000 0.000000e+000
         vertex 0.000000e+000 0.000000e+000 2.850000e+001
      endloop
   endfacet
   facet normal -1.000000e+000 0.000000e+000 0.000000e+000
      outer loop
         vertex 0.000000e+000 0.000000e+000 2.850000e+001
         vertex 0.000000e+000 7.000000e+000 0.000000e+000
         vertex 0.000000e+000 0.000000e+000 0.000000e+000
      endloop
   endfacet
   facet normal 0.000000e+000 0.000000e+000 1.000000e+000
      outer loop
         vertex 6.500000e+000 7.000000e+000 2.850000e+001
         vertex 0.000000e+000 7.000000e+000 2.850000e+001
         vertex 6.500000e+000 0.000000e+000 2.850000e+001
      endloop
   endfacet
   facet normal 0.000000e+000 0.000000e+000 1.000000e+000
      outer loop
         vertex 6.500000e+000 0.000000e+000 2.850000e+001
         vertex 0.000000e+000 7.000000e+000 2.850000e+001
         vertex 0.000000e+000 0.000000e+000 2.850000e+001
      endloop
   endfacet
   facet normal 1.000000e+000 0.000000e+000 0.000000e+000
      outer loop
         vertex 6.500000e+000 7.000000e+000 2.650000e+001
         vertex 6.500000e+000 7.000000e+000 2.850000e+001
         vertex 6.500000e+000 2.000000e+000 2.650000e+001
      endloop
   endfacet
   facet normal 1.000000e+000 0.000000e+000 0.000000e+000
      outer loop
         vertex 6.500000e+000 2.000000e+000 2.650000e+001
         vertex 6.500000e+000 7.000000e+000 2.850000e+001
         vertex 6.500000e+000 0.000000e+000 2.850000e+001
      endloop
   endfacet
   facet normal 1.000000e+000 0.000000e+000 0.000000e+000
      outer loop
         vertex 6.500000e+000 2.000000e+000 2.650000e+001
         vertex 6.500000e+000 0.000000e+000 2.850000e+001
         vertex 6.500000e+000 0.000000e+000 2.650000e+001
      endloop
   endfacet
   facet normal 0.000000e+000 0.000000e+000 -1.000000e+000
      outer loop
         vertex 2.000000e+000 7.000000e+000 2.650000e+001
         vertex 6.500000e+000 7.000000e+000 2.650000e+001
         vertex 2.000000e+000 2.000000e+000 2.650000e+001
      endloop
   endfacet
   facet normal 0.000000e+000 0.000000e+000 -1.000000e+000
      outer loop
         vertex 2.000000e+000 2.000000e+000 2.650000e+001
         vertex 6.500000e+000 7.000000e+000 2.650000e+001
         vertex 6.500000e+000 2.000000e+000 2.650000e+001
      endloop
   endfacet
   facet normal 0.000000e+000 0.000000e+000 1.000000e+000
      outer loop
         vertex 2.800000e+001 4.000000e+000 2.000000e+000
         vertex 2.800000e+001 7.000000e+000 2.000000e+000
         vertex 2.000000e+000 4.000000e+000 2.000000e+000
      endloop
   endfacet
   facet normal 0.000000e+000 0.000000e+000 1.000000e+000
      outer loop
         vertex 2.000000e+000 4.000000e+000 2.000000e+000
         vertex 2.800000e+001 7.000000e+000 2.000000e+000
         vertex 2.000000e+000 7.000000e+000 2.000000e+000
      endloop
   endfacet
   facet normal 0.000000e+000 1.000000e+000 0.000000e+000
      outer loop
         vertex 2.350000e+001 7.000000e+000 2.650000e+001
         vertex 2.350000e+001 7.000000e+000 2.850000e+001
         vertex 2.800000e+001 7.000000e+000 2.650000e+001
      endloop
   endfacet
   facet normal 0.000000e+000 1.000000e+000 0.000000e+000
      outer loop
         vertex 2.800000e+001 7.000000e+000 2.650000e+001
         vertex 2.350000e+001 7.000000e+000 2.850000e+001
         vertex 3.000000e+001 7.000000e+000 2.850000e+001
      endloop
   endfacet
   facet normal 0.000000e+000 1.000000e+000 0.000000e+000
      outer loop
         vertex 2.800000e+001 7.000000e+000 2.650000e+001
         vertex 3.000000e+001 7.000000e+000 2.850000e+001
         vertex 2.800000e+001 7.000000e+000 2.000000e+000
      endloop
   endfacet
   facet normal 0.000000e+000 1.000000e+000 0.000000e+000
      outer loop
         vertex 2.800000e+001 7.000000e+000 2.000000e+000
         vertex 3.000000e+001 7.000000e+000 2.850000e+001
         vertex 3.000000e+001 7.000000e+000 0.000000e+000
      endloop
   endfacet
   facet normal 0.000000e+000 1.000000e+000 0.000000e+000
      outer loop
         vertex 2.800000e+001 7.000000e+000 2.000000e+000
         vertex 3.000000e+001 7.000000e+000 0.000000e+000
         vertex 2.000000e+000 7.000000e+000 2.000000e+000
      endloop
   endfacet
   facet normal 0.000000e+000 1.000000e+000 0.000000e+000
      outer loop
         vertex 2.000000e+000 7.000000e+000 2.000000e+000
         vertex 3.000000e+001 7.000000e+000 0.000000e+000
         vertex 0.000000e+000 7.000000e+000 0.000000e+000
      endloop
   endfacet
   facet normal 0.000000e+000 1.000000e+000 0.000000e+000
      outer loop
         vertex 2.000000e+000 7.000000e+000 2.000000e+000
         vertex 0.000000e+000 7.000000e+000 0.000000e+000
         vertex 2.000000e+000 7.000000e+000 2.650000e+001
      endloop
   endfacet
   facet normal 0.000000e+000 1.000000e+000 0.000000e+000
      outer loop
         vertex 2.000000e+000 7.000000e+000 2.650000e+001
         vertex 0.000000e+000 7.000000e+000 0.000000e+000
         vertex 0.000000e+000 7.000000e+000 2.850000e+001
      endloop
   endfacet
   facet normal 0.000000e+000 1.000000e+000 0.000000e+000
      outer loop
         vertex 2.000000e+000 7.000000e+000 2.650000e+001
         vertex 0.000000e+000 7.000000e+000 2.850000e+001
         vertex 6.500000e+000 7.000000e+000 2.650000e+001
      endloop
   endfacet
   facet normal 0.000000e+000 1.000000e+000 0.000000e+000
      outer loop
         vertex 6.500000e+000 7.000000e+000 2.650000e+001
         vertex 0.000000e+000 7.000000e+000 2.850000e+001
         vertex 6.500000e+000 7.000000e+000 2.850000e+001
      endloop
   endfacet
   facet normal 0.000000e+000 -1.000000e+000 0.000000e+000
      outer loop
         vertex 3.000000e+001 0.000000e+000 2.850000e+001
         vertex 2.350000e+001 0.000000e+000 2.850000e+001
         vertex 2.350000e+001 0.000000e+000 2.650000e+001
      endloop
   endfacet
   facet normal 0.000000e+000 -1.000000e+000 0.000000e+000
      outer loop
         vertex 6.500000e+000 0.000000e+000 2.850000e+001
         vertex 0.000000e+000 0.000000e+000 2.850000e+001
         vertex 6.500000e+000 0.000000e+000 2.650000e+001
      endloop
   endfacet
   facet normal 0.000000e+000 -1.000000e+000 0.000000e+000
      outer loop
         vertex 6.500000e+000 0.000000e+000 2.650000e+001
         vertex 0.000000e+000 0.000000e+000 2.850000e+001
         vertex 0.000000e+000 0.000000e+000 0.000000e+000
      endloop
   endfacet
   facet normal 0.000000e+000 -1.000000e+000 0.000000e+000
      outer loop
         vertex 6.500000e+000 0.000000e+000 2.650000e+001
         vertex 0.000000e+000 0.000000e+000 0.000000e+000
         vertex 2.350000e+001 0.000000e+000 2.650000e+001
      endloop
   endfacet
   facet normal 0.000000e+000 -1.000000e+000 0.000000e+000
      outer loop
         vertex 2.350000e+001 0.000000e+000 2.650000e+001
         vertex 0.000000e+000 0.000000e+000 0.000000e+000
         vertex 3.000000e+001 0.000000e+000 0.000000e+000
      endloop
   endfacet
   facet normal 0.000000e+000 -1.000000e+000 0.000000e+000
      outer loop
         vertex 2.350000e+001 0.000000e+000 2.650000e+001
         vertex 3.000000e+001 0.000000e+000 0.000000e+000
         vertex 3.000000e+001 0.000000e+000 2.850000e+001
      endloop
   endfacet
   facet normal 0.000000e+000 0.000000e+000 1.000000e+000
      outer loop
         vertex 2.350000e+001 2.000000e+000 2.650000e+001
         vertex 6.500000e+000 2.000000e+000 2.650000e+001
         vertex 2.350000e+001 0.000000e+000 2.650000e+001
      endloop
   endfacet
   facet normal 0.000000e+000 0.000000e+000 1.000000e+000
      outer loop
         vertex 2.350000e+001 0.000000e+000 2.650000e+001
         vertex 6.500000e+000 2.000000e+000 2.650000e+001
         vertex 6.500000e+000 0.000000e+000 2.650000e+001
      endloop
   endfacet
   facet normal 0.000000e+000 1.000000e+000 0.000000e+000
      outer loop
         vertex 2.000000e+000 2.000000e+000 2.000000e+001
         vertex 2.000000e+000 2.000000e+000 2.650000e+001
         vertex 6.500000e+000 2.000000e+000 2.650000e+001
      endloop
   endfacet
   facet normal 0.000000e+000 1.000000e+000 0.000000e+000
      outer loop
         vertex 2.000000e+000 2.000000e+000 2.000000e+001
         vertex 6.500000e+000 2.000000e+000 2.650000e+001
         vertex 2.800000e+001 2.000000e+000 2.000000e+001
      endloop
   endfacet
   facet normal 0.000000e+000 1.000000e+000 0.000000e+000
      outer loop
         vertex 2.800000e+001 2.000000e+000 2.000000e+001
         vertex 6.500000e+000 2.000000e+000 2.650000e+001
         vertex 2.350000e+001 2.000000e+000 2.650000e+001
      endloop
   endfacet
   facet normal 0.000000e+000 1.000000e+000 0.000000e+000
      outer loop
         vertex 2.800000e+001 2.000000e+000 2.000000e+001
         vertex 2.350000e+001 2.000000e+000 2.650000e+001
         vertex 2.800000e+001 2.000000e+000 2.650000e+001
      endloop
   endfacet
   facet normal 0.000000e+000 1.000000e+000 0.000000e+000
      outer loop
         vertex 2.800000e+001 4.000000e+000 2.000000e+000
         vertex 2.000000e+000 4.000000e+000 2.000000e+000
         vertex 2.800000e+001 4.000000e+000 2.000000e+001
      endloop
   endfacet
   facet normal 0.000000e+000 1.000000e+000 0.000000e+000
      outer loop
         vertex 2.800000e+001 4.000000e+000 2.000000e+001
         vertex 2.000000e+000 4.000000e+000 2.000000e+000
         vertex 2.000000e+000 4.000000e+000 2.000000e+001
      endloop
   endfacet
   facet normal 0.000000e+000 0.000000e+000 1.000000e+000
      outer loop
         vertex 2.800000e+001 4.000000e+000 2.000000e+001
         vertex 2.000000e+000 4.000000e+000 2.000000e+001
         vertex 2.800000e+001 2.000000e+000 2.000000e+001
      endloop
   endfacet
   facet normal 0.000000e+000 0.000000e+000 1.000000e+000
      outer loop
         vertex 2.800000e+001 2.000000e+000 2.000000e+001
         vertex 2.000000e+000 4.000000e+000 2.000000e+001
         vertex 2.000000e+000 2.000000e+000 2.000000e+001
      endloop
   endfacet
endsolid